<mxfile host="65bd71144e">
    <diagram id="u-2dbqVmRGnyK0qHf5yc" name="Page-1">
        <mxGraphModel dx="1108" dy="569" grid="1" gridSize="10" guides="1" tooltips="1" connect="1" arrows="1" fold="1" page="1" pageScale="1" pageWidth="827" pageHeight="1169" math="0" shadow="0">
            <root>
                <mxCell id="0"/>
                <mxCell id="1" parent="0"/>
                <mxCell id="10" value="" style="rounded=1;whiteSpace=wrap;html=1;" parent="1" vertex="1">
                    <mxGeometry x="340" y="65" width="120" height="180" as="geometry"/>
                </mxCell>
                <mxCell id="3" value="" style="rounded=1;whiteSpace=wrap;html=1;" parent="1" vertex="1">
                    <mxGeometry x="80" y="65" width="120" height="180" as="geometry"/>
                </mxCell>
                <mxCell id="17" style="html=1;exitX=1;exitY=0.5;exitDx=0;exitDy=0;entryX=0;entryY=0.5;entryDx=0;entryDy=0;fontSize=13;fontColor=#FF8000;" parent="1" source="4" target="14" edge="1">
                    <mxGeometry relative="1" as="geometry"/>
                </mxCell>
                <mxCell id="4" value="&lt;font style=&quot;font-size: 13px&quot;&gt;&lt;font color=&quot;#ff0080&quot; style=&quot;font-size: 13px&quot;&gt;unsigned long&lt;/font&gt; &lt;font color=&quot;#ff8000&quot; style=&quot;font-size: 13px&quot;&gt;a&lt;/font&gt;&lt;/font&gt;" style="rounded=0;whiteSpace=wrap;html=1;" parent="1" vertex="1">
                    <mxGeometry x="85" y="80" width="110" height="30" as="geometry"/>
                </mxCell>
                <mxCell id="19" style="html=1;exitX=1;exitY=0.5;exitDx=0;exitDy=0;entryX=0;entryY=0.5;entryDx=0;entryDy=0;fontSize=13;fontColor=#FF8000;" parent="1" source="5" target="12" edge="1">
                    <mxGeometry relative="1" as="geometry"/>
                </mxCell>
                <mxCell id="5" value="&lt;span style=&quot;font-size: 13px&quot;&gt;&lt;font color=&quot;#ff0080&quot;&gt;int*&lt;/font&gt;&amp;nbsp;&lt;font color=&quot;#ff8000&quot;&gt;b&lt;/font&gt;&lt;/span&gt;" style="rounded=0;whiteSpace=wrap;html=1;" parent="1" vertex="1">
                    <mxGeometry x="85" y="110" width="110" height="30" as="geometry"/>
                </mxCell>
                <mxCell id="20" style="html=1;exitX=1;exitY=0.5;exitDx=0;exitDy=0;entryX=0;entryY=0.5;entryDx=0;entryDy=0;fontSize=13;fontColor=#FF8000;" parent="1" source="6" target="15" edge="1">
                    <mxGeometry relative="1" as="geometry"/>
                </mxCell>
                <mxCell id="6" value="&lt;span style=&quot;font-size: 13px&quot;&gt;&lt;font color=&quot;#ff0080&quot;&gt;int&lt;/font&gt;&amp;nbsp;&lt;font color=&quot;#ff8000&quot;&gt;c&lt;/font&gt;&lt;/span&gt;" style="rounded=0;whiteSpace=wrap;html=1;" parent="1" vertex="1">
                    <mxGeometry x="85" y="140" width="55" height="30" as="geometry"/>
                </mxCell>
                <mxCell id="21" style="html=1;exitX=1;exitY=0.5;exitDx=0;exitDy=0;entryX=0;entryY=0.5;entryDx=0;entryDy=0;fontSize=13;fontColor=#FF8000;" parent="1" source="7" target="13" edge="1">
                    <mxGeometry relative="1" as="geometry"/>
                </mxCell>
                <mxCell id="7" value="&lt;font color=&quot;#ff0080&quot; style=&quot;font-size: 13px&quot;&gt;void*&lt;/font&gt;&lt;span style=&quot;font-size: 13px&quot;&gt;&amp;nbsp;&lt;font color=&quot;#ff8000&quot;&gt;d(&lt;/font&gt;&lt;/span&gt;&lt;span style=&quot;color: rgb(255 , 0 , 128) ; font-size: 13px&quot;&gt;int, int&lt;/span&gt;&lt;span style=&quot;font-size: 13px&quot;&gt;&lt;font color=&quot;#ff8000&quot;&gt;)&lt;/font&gt;&lt;/span&gt;" style="rounded=0;whiteSpace=wrap;html=1;" parent="1" vertex="1">
                    <mxGeometry x="85" y="170" width="110" height="30" as="geometry"/>
                </mxCell>
                <mxCell id="22" style="html=1;exitX=1;exitY=0.25;exitDx=0;exitDy=0;entryX=0;entryY=0.5;entryDx=0;entryDy=0;fontSize=13;fontColor=#FF8000;" parent="1" source="8" target="11" edge="1">
                    <mxGeometry relative="1" as="geometry"/>
                </mxCell>
                <mxCell id="8" value="&lt;span style=&quot;font-size: 13px&quot;&gt;&lt;font color=&quot;#ff0080&quot;&gt;struct s*&lt;/font&gt;&amp;nbsp;&lt;font color=&quot;#ff8000&quot;&gt;e&lt;/font&gt;&lt;/span&gt;" style="rounded=0;whiteSpace=wrap;html=1;" parent="1" vertex="1">
                    <mxGeometry x="85" y="200" width="110" height="30" as="geometry"/>
                </mxCell>
                <mxCell id="9" value="&lt;font style=&quot;font-size: 16px&quot;&gt;&lt;font color=&quot;#cc0066&quot;&gt;struct&lt;/font&gt; s&lt;/font&gt;" style="text;html=1;strokeColor=none;fillColor=none;align=center;verticalAlign=middle;whiteSpace=wrap;rounded=0;" parent="1" vertex="1">
                    <mxGeometry x="110" y="20" width="60" height="30" as="geometry"/>
                </mxCell>
                <mxCell id="11" value="&lt;font style=&quot;font-size: 13px&quot;&gt;&lt;font color=&quot;#ff0080&quot;&gt;struct s*&lt;/font&gt;&amp;nbsp;&lt;font color=&quot;#ff8000&quot;&gt;e&lt;/font&gt;&lt;/font&gt;" style="rounded=0;whiteSpace=wrap;html=1;" parent="1" vertex="1">
                    <mxGeometry x="345" y="80" width="110" height="30" as="geometry"/>
                </mxCell>
                <mxCell id="12" value="&lt;font color=&quot;#ff0080&quot; style=&quot;font-size: 13px&quot;&gt;int*&lt;/font&gt;&lt;span style=&quot;font-size: 13px&quot;&gt;&amp;nbsp;&lt;font color=&quot;#ff8000&quot;&gt;b&lt;/font&gt;&lt;/span&gt;" style="rounded=0;whiteSpace=wrap;html=1;" parent="1" vertex="1">
                    <mxGeometry x="345" y="110" width="110" height="30" as="geometry"/>
                </mxCell>
                <mxCell id="13" value="&lt;font color=&quot;#ff0080&quot; style=&quot;font-size: 13px&quot;&gt;void*&lt;/font&gt;&lt;span style=&quot;font-size: 13px&quot;&gt;&amp;nbsp;&lt;font color=&quot;#ff8000&quot;&gt;d(&lt;/font&gt;&lt;/span&gt;&lt;span style=&quot;color: rgb(255 , 0 , 128) ; font-size: 13px&quot;&gt;int, int&lt;/span&gt;&lt;span style=&quot;font-size: 13px&quot;&gt;&lt;font color=&quot;#ff8000&quot;&gt;)&lt;/font&gt;&lt;/span&gt;" style="rounded=0;whiteSpace=wrap;html=1;" parent="1" vertex="1">
                    <mxGeometry x="345" y="140" width="110" height="30" as="geometry"/>
                </mxCell>
                <mxCell id="14" value="&lt;font color=&quot;#ff0080&quot; style=&quot;font-size: 13px&quot;&gt;unsigned long&lt;/font&gt;&lt;span style=&quot;font-size: 13px&quot;&gt;&amp;nbsp;&lt;font color=&quot;#ff8000&quot;&gt;a&lt;/font&gt;&lt;/span&gt;" style="rounded=0;whiteSpace=wrap;html=1;" parent="1" vertex="1">
                    <mxGeometry x="345" y="170" width="110" height="30" as="geometry"/>
                </mxCell>
                <mxCell id="15" value="&lt;span style=&quot;font-size: 13px&quot;&gt;&lt;font color=&quot;#ff0080&quot;&gt;int&lt;/font&gt;&amp;nbsp;&lt;font color=&quot;#ff8000&quot;&gt;c&lt;/font&gt;&lt;/span&gt;" style="rounded=0;whiteSpace=wrap;html=1;" parent="1" vertex="1">
                    <mxGeometry x="345" y="200" width="55" height="30" as="geometry"/>
                </mxCell>
                <mxCell id="16" value="&lt;font style=&quot;font-size: 16px&quot;&gt;&lt;font color=&quot;#cc0066&quot;&gt;struct&lt;/font&gt; s (layout_randomized)&lt;/font&gt;" style="text;html=1;strokeColor=none;fillColor=none;align=center;verticalAlign=middle;whiteSpace=wrap;rounded=0;" parent="1" vertex="1">
                    <mxGeometry x="325" y="35" width="150" height="15" as="geometry"/>
                </mxCell>
                <mxCell id="23" value="shuffle" style="text;html=1;strokeColor=none;fillColor=none;align=center;verticalAlign=middle;whiteSpace=wrap;rounded=0;" vertex="1" parent="1">
                    <mxGeometry x="240" y="200" width="60" height="30" as="geometry"/>
                </mxCell>
            </root>
        </mxGraphModel>
    </diagram>
</mxfile>